# xmcd
#
# Track frame offsets:
#	150
#	15622
#	38323
#	63705
#	79916
#	98054
#	142028
#	160910
#	187745
#	212474
#	235072
#	255812
#
# Disc length: 3600 seconds
#
# Revision: 4
# Processed by: cddbd v1.5.2PL0 Copyright (c) Steve Scherf et al.
# Submitted via: EasyCDDAExtractor 16.0.0.1
#
DISCID=8b0e0e0c
DTITLE=Tom Russell - Indians Cowboys Horses Dogs
DYEAR=2004
DGENRE=Country
TTITLE0=Tonight We Ride
TTITLE1=Seven Curses
TTITLE2=El Paso
TTITLE3=All This Way For The Short Ride
TTITLE4=Bucking Horse Moon
TTITLE5=Lily, Rosemary, And The Jack Of Hearts
TTITLE6=No Telling
TTITLE7=Bacon Rind  Chief Seattle  The Ballad Of Ira Hayes
TTITLE8=Old Blue
TTITLE9=East Texas Red
TTITLE10=The Ballad Of Edward Abbey
TTITLE11=Little Blue Horse
EXTD=
EXTT0=
EXTT1=
EXTT2=
EXTT3=
EXTT4=
EXTT5=
EXTT6=
EXTT7=
EXTT8=
EXTT9=
EXTT10=
EXTT11=
PLAYORDER=
